<svg id="svg" 
  xmlns="http://www.w3.org/2000/svg" 
  xmlns:xlink="http://www.w3.org/1999/xlink" width="400" height="438.50267379679144" viewBox="0, 0, 400,438.50267379679144">
  <g id="svgg">
    <path id="path0" stroke="none" fill="#52b59a" fill-rule="evenodd" d="M108.913 0.394 C 79.753 3.102,55.664 13.871,36.091 32.950 C -20.937 88.539,-8.780 181.513,60.706 221.210 C 114.159 251.746,186.747 231.480,212.647 178.788 C 216.683 170.577,217.265 168.341,216.423 164.283 C 214.897 156.934,207.856 153.423,196.600 154.401 C 186.023 155.319,180.734 158.009,169.697 168.085 C 158.107 178.666,150.771 183.283,139.676 186.981 C 104.614 198.665,68.713 183.566,52.378 150.267 C 31.242 107.181,53.815 57.566,100.713 44.028 C 125.746 36.802,147.890 43.825,170.232 66.076 C 182.045 77.842,189.420 82.155,199.904 83.430 C 213.378 85.068,225.794 76.194,222.468 67.304 C 217.242 53.336,202.355 34.516,188.149 23.918 C 163.531 5.553,137.281 -2.240,108.913 0.394 M240.820 15.695 C 235.836 16.140,230.438 16.997,225.900 18.064 C 219.389 19.596,218.639 16.834,231.658 39.291 L 242.939 58.749 247.712 58.769 C 266.887 58.850,283.280 71.740,288.310 90.692 C 288.803 92.549,288.919 96.257,289.098 115.865 L 289.307 138.859 305.562 166.845 C 314.502 182.237,322.002 195.181,322.228 195.609 C 322.617 196.348,322.436 196.486,318.627 198.341 C 292.417 211.109,258.817 209.904,236.932 195.410 C 235.439 194.421,233.978 193.566,233.685 193.508 C 232.825 193.340,208.567 228.888,209.030 229.639 C 210.625 232.222,228.625 241.278,238.649 244.539 C 268.171 254.144,298.757 252.674,332.028 240.053 C 348.095 233.958,367.581 219.979,379.661 205.882 C 391.304 192.295,401.402 173.064,399.662 167.791 C 398.362 163.854,383.664 159.817,374.150 160.785 C 362.623 161.957,357.916 164.778,343.074 179.408 C 337.352 185.047,332.487 189.661,332.262 189.661 C 331.956 189.661,331.870 177.165,331.920 140.018 C 331.990 88.506,331.974 87.842,330.478 79.323 C 323.139 37.535,286.601 11.605,240.820 15.695 M241.533 111.345 C 230.036 114.288,226.427 129.023,235.251 136.995 C 243.614 144.550,257.287 140.197,259.734 129.201 C 262.161 118.289,252.279 108.594,241.533 111.345 M287.262 315.052 L 287.154 359.180 286.192 362.687 C 279.900 385.628,257.834 397.662,238.968 388.441 C 227.887 383.025,222.329 374.020,221.389 359.956 C 220.319 343.963,210.012 332.297,195.015 330.104 C 182.406 328.260,176.521 333.509,175.062 347.899 C 169.983 398.012,204.332 438.206,252.228 438.194 C 291.358 438.184,322.166 411.676,328.934 372.193 C 329.553 368.580,330.116 307.459,329.588 301.070 L 329.353 298.217 308.855 284.848 C 297.581 277.496,288.135 271.355,287.864 271.202 C 287.445 270.966,287.354 277.607,287.262 315.052 "></path>
    <path id="path1" stroke="none" fill="#52b59a" fill-rule="evenodd" d="M216.221 20.812 C 210.450 22.867,206.078 25.117,198.639 29.860 L 196.742 31.069 200.993 35.437 C 210.145 44.842,220.967 61.025,222.651 67.825 C 222.961 69.078,222.710 69.174,226.063 66.522 C 230.544 62.979,239.127 59.196,242.732 59.175 C 243.258 59.172,243.496 59.054,243.273 58.907 C 242.120 58.150,220.368 19.778,220.959 19.544 C 221.420 19.361,221.438 19.300,221.034 19.295 C 220.740 19.292,218.574 19.975,216.221 20.812 M289.184 170.766 C 289.159 190.080,289.263 206.080,289.416 206.321 C 290.623 208.222,313.465 201.622,320.940 197.213 L 322.629 196.217 306.172 167.894 C 291.459 142.573,289.689 139.364,289.473 137.611 C 289.340 136.533,289.210 151.453,289.184 170.766 M212.412 179.274 C 206.885 190.517,197.741 202.007,188.130 209.781 L 186.421 211.163 187.596 212.383 C 192.582 217.562,211.583 232.756,209.003 229.501 C 208.492 228.856,232.910 193.356,233.750 193.523 C 234.078 193.589,233.075 192.636,231.522 191.406 C 227.511 188.230,221.687 182.229,218.392 177.878 C 216.840 175.829,215.477 174.051,215.361 173.926 C 215.246 173.801,213.919 176.207,212.412 179.274 M325.163 242.485 C 315.386 246.186,296.879 250.267,289.871 250.267 C 287.175 250.267,287.344 249.564,287.344 260.762 L 287.344 270.823 308.355 284.520 L 329.366 298.217 329.505 299.643 C 329.581 300.428,329.672 287.553,329.706 271.034 C 329.755 247.191,329.676 241.007,329.323 241.039 C 329.078 241.061,327.206 241.712,325.163 242.485 "></path>
  </g>
</svg>