<?xml version="1.0" standalone="no"?>
<!DOCTYPE svg PUBLIC "-//W3C//DTD SVG 20010904//EN"
 "http://www.w3.org/TR/2001/REC-SVG-20010904/DTD/svg10.dtd">
<svg version="1.0" 
  xmlns="http://www.w3.org/2000/svg" width="300.000000pt" height="329.000000pt" viewBox="0 0 300.000000 329.000000" preserveAspectRatio="xMidYMid meet">
  <metadata>
Created by potrace 1.10, written by Peter Selinger 2001-2011
  </metadata>
  <g transform="translate(0.000000,329.000000) scale(0.100000,-0.100000)" fill="#ffffff" stroke="none">
    <path fill="#ffffff" d="M661 3255 c-173 -45 -292 -115 -417 -248 -78 -81 -140 -177 -178
-275 -42 -105 -73 -273 -46 -246 5 5 15 37 21 69 44 249 227 499 444 608 68
34 195 75 275 88 36 6 69 15 75 20 18 17 -80 8 -174 -16z"/>
    <path fill="#ffffff" d="M970 3271 c8 -5 56 -18 105 -31 99 -24 231 -87 315 -150 55 -41 95
-55 69 -24 -51 61 -257 172 -370 199 -70 16 -144 20 -119 6z"/>
    <path fill="#ffffff" d="M1705 3154 c-63 -14 -209 -76 -220 -94 -2 -4 18 -31 46 -60 55 -59
129 -176 129 -205 0 -33 -48 -84 -91 -95 -83 -23 -172 14 -264 109 -162 167
-356 232 -539 182 -126 -35 -220 -90 -305 -180 -52 -56 -114 -156 -127 -206
-40 -158 -31 -319 23 -435 48 -103 117 -184 214 -250 85 -58 165 -83 284 -86
167 -5 298 46 429 167 75 69 109 87 186 97 80 11 117 -9 126 -68 8 -47 24 -44
24 5 0 81 -87 115 -204 81 -43 -13 -75 -33 -143 -92 -142 -123 -253 -168 -408
-167 -287 1 -514 227 -532 528 -10 168 43 304 166 425 191 188 457 225 657 90
27 -18 83 -66 125 -107 100 -96 165 -127 255 -121 74 5 113 28 130 77 20 61
117 106 217 99 109 -7 209 -75 259 -176 23 -47 23 -50 26 -489 2 -344 5 -443
15 -443 27 0 161 42 196 61 20 11 27 17 16 13 -50 -17 -151 -44 -167 -44 -12
0 -19 10 -23 33 -2 17 -6 210 -8 427 l-2 395 -29 58 c-33 66 -110 140 -176
170 -25 10 -74 22 -110 24 -56 5 -76 1 -135 -22 -65 -26 -70 -27 -80 -10 -26
45 -99 149 -117 167 -10 10 -18 25 -15 31 6 21 98 64 174 82 104 25 303 17
386 -14 196 -76 318 -217 353 -411 10 -54 13 -183 14 -457 0 -342 2 -383 16
-383 14 0 15 42 11 413 -4 453 -5 462 -70 596 -109 225 -415 347 -712 285z"/>
    <path fill="#ffffff" d="M1774 2432 c-55 -44 -59 -109 -10 -158 27 -27 42 -34 74 -34 102 0
146 119 71 189 -29 27 -104 29 -135 3z m124 -37 c46 -54 12 -125 -59 -125 -50
0 -79 30 -79 82 0 32 5 41 32 58 40 24 76 19 106 -15z"/>
    <path fill="#ffffff" d="M14 2276 c10 -90 63 -237 118 -326 125 -203 321 -348 543 -401 129
-30 322 -24 445 16 94 30 163 63 228 107 75 52 36 44 -81 -15 -138 -71 -238
-98 -377 -103 -402 -13 -755 273 -846 686 -21 96 -39 117 -30 36z"/>
    <path fill="#ffffff" d="M2731 2063 c-31 -11 -73 -43 -138 -106 -88 -85 -115 -121 -75 -98 9
6 51 42 92 81 93 89 143 113 228 112 61 -1 132 -25 132 -43 0 -5 -15 -40 -34
-77 -83 -165 -221 -300 -393 -386 -67 -34 -91 -56 -60 -56 23 0 161 81 234
136 110 85 210 212 258 330 29 71 23 86 -42 108 -58 20 -144 19 -202 -1z"/>
    <path fill="#ffffff" d="M1595 1953 c-10 -41 -74 -132 -137 -194 l-57 -56 52 -45 c181 -156
359 -229 593 -244 89 -6 106 -5 102 7 -3 10 -33 16 -111 21 -130 9 -249 38
-342 85 -107 53 -235 152 -235 181 0 8 17 33 38 57 21 24 51 63 67 87 46 68
53 71 85 38 116 -119 263 -181 428 -181 113 0 109 17 -5 24 -178 12 -270 52
-387 168 -43 44 -80 79 -81 79 -2 0 -6 -12 -10 -27z"/>
    <path fill="#ffffff" d="M2390 1455 c-36 -13 -102 -29 -147 -36 l-83 -12 0 -402 c0 -449 -2
-463 -67 -550 -106 -141 -304 -139 -398 4 -17 25 -28 61 -35 114 -11 89 -35
143 -82 182 -46 39 -89 55 -145 55 -59 0 -87 -18 -104 -68 -17 -48 -17 -222 0
-292 47 -193 197 -356 383 -415 94 -30 239 -34 331 -10 185 48 336 195 405
394 14 39 16 121 19 554 2 279 0 506 -4 506 -4 -1 -37 -12 -73 -24z m44 -31
c3 -9 6 -219 6 -468 0 -474 -3 -509 -47 -605 -68 -147 -224 -277 -368 -306
-22 -5 -47 -10 -55 -13 -72 -21 -240 10 -342 64 -29 16 -85 60 -124 99 -110
110 -164 243 -164 410 0 139 23 180 99 177 57 -2 98 -21 134 -61 38 -42 52
-78 62 -160 8 -71 34 -120 91 -170 115 -101 261 -88 371 33 82 90 83 95 89
552 3 219 7 404 9 410 2 6 30 14 62 18 32 4 81 13 108 20 65 18 62 18 69 0z"/>
  </g>
</svg>
